#!OML:ASF H:\Terrain\Patient Classification 1\Walking\liu\liu.ASF
:FULLY-SPECIFIED
:DEGREES
133
root 10.9098437204 17.3630506931 30.5412689197 4.0809173023 4.37030271073 3.5604487933
lowerback -5.7651181204 -4.36698956737 -4.21676086562
upperback 0.813900882998 -5.59464470101 1.69191698753
thorax 4.66114055787 -2.90659259516 3.55178027612
lowerneck -22.7518585171 -2.63672004078 -9.71913946047
upperneck 24.31122026 -3.00139227797 9.60087603611
head 12.0785956148 -0.994844967671 4.78077513116
rclavicle -1.08589388202e-15 9.19249126211e-16
rhumerus -46.7458205449 9.5474808324 -85.9459274792
rradius 39.3740647438
rwrist -20.3462909698
rhand -31.0253866539 -24.3793917416
rfingers 7.12502
rthumb -4.30768002797 -54.31547471
lclavicle -1.08589388202e-15 9.19249126211e-16
lhumerus -8.45978606386 -21.1677648936 83.4269594009
lradius 30.0833258184
lwrist 7.82581262054
lhand -15.7606873001 -25.3339395312
lfingers 7.12502
lthumb 10.4310832988 4.38733947821
rfemur -36.4312968833 3.45680728719 14.1191877892
rtibia 37.1324467942
rfoot -19.8992180826 -8.19657128252
rtoes -16.3055245018
lfemur 0.143293951595 2.50947400052 -28.9008736827
ltibia 14.9689770782
lfoot -17.4236102103 3.70566008917
ltoes 6.74186777122
134
root 10.8983548241 17.3394222322 31.0266198917 4.28708491039 4.13147161893 3.52624739984
lowerback -6.42586157452 -4.45753378258 -4.11294898506
upperback 1.10337087086 -5.69937188624 1.71946998701
thorax 5.33050374702 -2.97240121995 3.44257428965
lowerneck -23.5114541555 -2.45053087707 -9.56678153399
upperneck 24.6041838507 -2.86014571527 9.99829206074
head 12.330372017 -0.851448971104 4.95753724819
rclavicle -1.78769729158e-14 1.65567448695e-14
rhumerus -47.01724916 9.31010334419 -85.9119600273
rradius 39.0454115363
rwrist -20.2242956361
rhand -32.0034678987 -24.3007475429
rfingers 7.12502
rthumb -5.25208244023 -54.2156224955
lclavicle -1.78769729158e-14 1.65567448695e-14
lhumerus -7.68224302397 -21.409270551 83.2246501237
lradius 31.437656018
lwrist 7.91957221188
lhand -17.3851006336 -25.2969200232
lfingers 7.12502
lthumb 8.86376496859 4.49671386407
rfemur -38.1700748487 5.96063659279 13.0543396279
rtibia 32.7962425561
rfoot -20.2719283768 -7.32874834941
rtoes -11.6138301898
lfemur 4.95832196014 2.67328807034 -28.6059493984
ltibia 8.59754568918
lfoot -16.0531882198 3.98646102827
ltoes 4.67670985583
135
root 10.8857492329 17.2922108487 31.5366293527 4.30619782816 4.27143449678 4.83868863007
lowerback -7.6856967711 -4.83654262692 -5.60900754029
upperback 1.98583168399 -5.99247938899 1.46927235254
thorax 7.15218859001 -3.21257011629 3.8282039133
lowerneck -23.6133319209 -2.42362769866 -9.7735552527
upperneck 23.7416409783 -2.74548416904 10.2418164972
head 12.0070777883 -0.77863389511 5.07021127781
rclavicle 5.91801992638e-15 1.6162062652e-14
rhumerus -46.2079603556 8.95933197346 -85.6263495804
rradius 38.0253198386
rwrist -19.9268832871
rhand -32.745153638 -22.4322167258
rfingers 7.12502
rthumb -5.96819840698 -52.3285678942
lclavicle 5.91801992638e-15 1.6162062652e-14
lhumerus -6.55882996176 -21.3849272567 82.9462337477
lradius 32.7741399768
lwrist 8.35976343928
lhand -17.146174122 -25.7406781526
lfingers 7.12502
lthumb 9.09425730784 4.04321011845
rfemur -39.8122804754 8.373769487 10.1327071962
rtibia 30.1954285162
rfoot -21.9905559966 -6.40104592172
rtoes -13.8198688054
lfemur 11.4300648551 2.43916953797 -29.8080707217
ltibia 0.0703743695379
lfoot -13.6292451341 4.49463088946
ltoes 1.9649592261
136
root 10.8562913655 17.234782713 32.048972059 4.59084271413 4.17796286154 5.23187393808
lowerback -5.50710958991 -4.73846454446 -5.49229981974
upperback -0.0888234078587 -6.00713623505 1.23776562143
thorax 3.68783329887 -3.09592657218 3.79824441077
lowerneck -21.6407687724 -2.16766087905 -9.67952358098
upperneck 24.6804352664 -2.62261106131 10.0869462512
head 11.961002108 -0.786169311443 5.03004334918
rclavicle -1.12712144369e-13 1.00111019e-14
rhumerus -50.0936611703 8.54111751151 -85.7642115397
rradius 37.3565553327
rwrist -19.7310147081
rhand -31.3046527786 -22.5297044358
rfingers 7.12502
rthumb -4.57731478024 -52.4602577109
lclavicle -1.12712144369e-13 1.00111019e-14
lhumerus -11.1998822755 -22.5245205938 84.9738141045
lradius 34.3822441435
lwrist 8.14067493464
lhand -16.665726606 -26.2332732994
lfingers 7.12502
lthumb 9.55788302788 3.53015436504
rfemur -41.733845804 11.5650145947 7.88510335084
rtibia 28.1338635461
rfoot -24.3630715734 -7.43145569388
rtoes -16.215205481
lfemur 13.1339329334 2.41291689689 -29.9291115856
ltibia 9.73618516095e-05
lfoot -14.8181451658 4.80184954795
ltoes 1.40933327263
